<?xml version="1.0" standalone="no"?>
<!DOCTYPE svg PUBLIC "-//W3C//DTD SVG 20010904//EN"
 "http://www.w3.org/TR/2001/REC-SVG-20010904/DTD/svg10.dtd">
<svg version="1.0" xmlns="http://www.w3.org/2000/svg"
 width="512.000000pt" height="512.000000pt" viewBox="0 0 512.000000 512.000000"
 preserveAspectRatio="xMidYMid meet">
<metadata>
Created by potrace 1.14, written by Peter Selinger 2001-2017
</metadata>
<g transform="translate(0.000000,512.000000) scale(0.100000,-0.100000)"
fill="#000000" stroke="none">
<path d="M0 2560 l0 -2560 2560 0 2560 0 0 2560 0 2560 -2560 0 -2560 0 0
-2560z m2860 2115 c32 -17 80 -74 80 -96 0 -23 -21 -39 -49 -39 -15 0 -39 -9
-56 -20 -35 -22 -425 -433 -418 -440 2 -2 77 -5 166 -6 154 -2 191 -7 380 -48
118 -25 171 5 202 116 11 39 28 72 46 91 34 33 48 31 25 -5 -8 -12 -19 -51
-25 -85 -13 -84 -37 -130 -81 -160 -44 -28 -125 -39 -185 -26 l-40 10 1 -91
c1 -125 0 -121 40 -166 34 -38 36 -43 29 -87 -11 -81 -25 -122 -46 -136 -16
-12 -18 -19 -9 -41 5 -15 10 -29 10 -30 0 -2 -26 7 -57 19 -172 69 -456 74
-632 11 -24 -9 -45 -16 -46 -16 -1 0 3 20 9 44 12 47 31 76 51 76 22 0 43 35
59 101 28 114 21 149 -29 149 -19 0 -36 -4 -40 -10 -3 -5 -33 -12 -65 -16 -56
-6 -63 -10 -98 -53 -21 -25 -48 -61 -61 -78 -12 -18 -29 -33 -36 -33 -17 0
-65 -61 -65 -83 0 -29 -20 -29 -50 2 -38 38 -38 48 3 65 50 20 97 83 97 127 0
84 20 105 120 124 23 4 46 20 68 45 32 37 33 40 18 62 -9 12 -16 40 -16 61 0
42 0 42 -68 21 -19 -5 -24 -2 -29 15 -4 16 -10 20 -22 15 -41 -17 -69 -16 -80
4 -14 26 1 37 28 22 15 -8 32 -5 71 10 28 11 63 20 77 20 20 0 24 3 16 11 -8
8 -25 7 -62 -4 -56 -16 -69 -10 -90 46 -10 27 -9 29 27 44 20 8 44 21 52 28 8
7 38 18 67 25 92 23 175 -20 203 -106 10 -29 14 -33 27 -23 16 14 284 324 348
403 32 40 39 55 38 89 -1 22 0 44 3 49 8 13 63 9 94 -7z m699 -953 c48 -35 65
-69 69 -137 3 -49 0 -71 -12 -90 -23 -35 -74 -65 -110 -65 l-30 0 27 28 c30
31 37 54 9 29 -10 -9 -45 -23 -79 -31 -34 -7 -66 -17 -72 -21 -16 -9 -14 49 3
90 8 19 26 40 38 46 13 6 25 19 25 30 1 12 7 27 14 35 13 16 39 19 39 4 0 -5
9 -10 20 -10 15 0 20 7 20 25 0 30 -24 81 -42 89 -7 3 3 4 22 1 19 -3 46 -13
59 -23z m-76 -14 c26 -31 21 -46 -15 -44 -28 1 -36 -4 -50 -33 -9 -18 -28 -45
-42 -60 -42 -45 -58 -110 -36 -152 10 -18 12 -18 36 -3 13 9 27 15 29 12 3 -3
0 -28 -7 -56 -6 -29 -9 -54 -6 -57 3 -4 27 8 54 24 56 36 94 41 94 12 0 -11
15 -28 36 -40 32 -19 34 -23 23 -39 -8 -9 -22 -23 -32 -31 -12 -9 -17 -21 -13
-35 5 -20 -2 -24 -72 -45 -88 -26 -222 -87 -222 -102 0 -5 13 -3 30 6 16 8 47
15 69 15 32 0 44 -6 65 -31 26 -30 26 -31 9 -61 -32 -54 -70 -73 -148 -74 -93
-1 -105 -3 -105 -12 0 -4 13 -13 29 -19 56 -21 80 -93 58 -176 -7 -27 -10 -28
-50 -22 -54 9 -97 31 -123 62 l-21 25 5 -76 c4 -65 2 -77 -13 -82 -22 -9 -80
19 -98 48 -16 26 -62 197 -73 271 -12 87 -16 41 -4 -59 12 -111 32 -196 62
-266 l20 -48 124 0 124 0 0 -312 1 -313 29 55 28 55 -24 3 c-30 4 -30 13 1 50
20 24 22 31 10 36 -24 9 -17 20 25 39 61 28 90 73 103 159 6 40 16 76 21 80
20 14 84 8 127 -12 56 -25 86 -25 149 0 94 37 163 23 174 -34 9 -45 37 -62 74
-47 38 16 69 67 89 145 15 64 15 75 -1 180 -23 147 -20 156 128 306 62 63 123
130 136 149 23 33 23 33 34 12 12 -21 12 -21 37 6 38 41 89 119 126 193 l33
65 0 -53 c0 -73 -16 -132 -61 -230 l-38 -83 29 21 c16 11 59 53 95 93 l67 72
-4 -61 c-5 -74 -38 -145 -108 -232 -61 -76 -38 -68 63 21 61 54 67 57 67 35 0
-42 -58 -142 -123 -214 -34 -38 -53 -65 -42 -60 11 4 49 10 84 13 l64 6 -23
-41 c-32 -57 -75 -96 -150 -137 l-65 -35 46 0 c49 0 109 -17 109 -30 0 -18
-91 -90 -129 -101 -38 -11 -56 -29 -30 -29 21 0 69 -41 69 -59 0 -27 -34 -52
-79 -58 l-41 -6 25 -23 c14 -13 25 -27 25 -32 0 -15 -57 -35 -88 -30 l-28 4 4
-52 4 -53 -33 -6 c-19 -3 -46 -2 -60 4 -26 9 -27 8 -33 -30 -5 -32 -10 -39
-29 -39 -24 0 -64 23 -84 48 -10 12 -13 10 -19 -14 -3 -16 -13 -39 -21 -52
-13 -21 -16 -21 -35 -8 -11 8 -29 27 -39 42 l-17 27 -16 -36 c-20 -49 -40 -47
-91 7 -37 40 -42 43 -60 30 -10 -8 -22 -14 -26 -14 -12 0 -49 66 -49 89 0 25
-2 25 -41 6 -28 -15 -30 -15 -37 6 -8 19 -10 18 -35 -20 -22 -33 -88 -81 -112
-81 -3 0 -11 14 -18 31 l-12 31 -28 -22 c-15 -12 -27 -30 -27 -41 0 -16 7 -19
56 -19 54 0 92 -12 106 -34 13 -19 9 -21 -45 -18 -33 2 -68 -2 -90 -12 -54
-22 -52 -64 8 -141 24 -32 42 -61 40 -66 -9 -13 -64 12 -96 43 -16 17 -32 28
-34 26 -7 -6 15 -119 27 -141 14 -26 2 -33 -28 -17 -35 19 -47 45 -54 110 -5
51 -6 53 -18 32 -7 -13 -18 -51 -23 -85 -6 -34 -14 -64 -18 -67 -4 -3 -18 -34
-30 -70 -93 -258 -255 -452 -498 -594 -34 -20 -69 -36 -78 -36 -9 0 -47 16
-84 35 -226 119 -414 343 -500 593 -11 34 -25 70 -31 80 -5 9 -12 42 -15 73
-3 31 -13 65 -20 75 -13 17 -14 15 -15 -26 0 -54 -29 -106 -66 -120 -14 -6
-27 -10 -29 -10 -2 0 5 23 16 50 10 28 19 69 19 92 0 41 -1 42 -15 21 -29 -42
-115 -89 -115 -63 0 6 15 30 34 53 62 77 70 111 35 143 -17 15 -36 19 -94 19
-64 0 -72 2 -64 16 13 26 63 41 118 37 41 -2 51 0 51 13 0 19 -19 43 -45 57
-16 9 -22 6 -37 -19 -12 -20 -23 -27 -35 -22 -34 11 -83 54 -99 84 -15 29 -16
30 -29 12 -13 -17 -15 -17 -45 -1 -29 17 -30 16 -30 -4 0 -27 -40 -98 -56 -98
-6 0 -17 7 -24 15 -17 21 -25 19 -38 -10 -11 -23 -66 -65 -85 -65 -4 0 -17 19
-27 43 -11 23 -20 35 -20 26 0 -23 -56 -73 -74 -66 -8 3 -20 24 -27 47 l-12
41 -27 -26 c-14 -13 -40 -27 -57 -31 -27 -5 -31 -3 -37 21 -4 15 -4 35 -1 45
6 18 4 18 -25 3 -21 -10 -43 -13 -66 -8 l-36 6 4 50 3 49 -41 0 c-22 0 -48 6
-58 13 -16 12 -16 14 3 38 22 29 19 39 -14 39 -26 0 -75 36 -75 54 0 17 34 48
68 62 l27 11 -40 11 c-55 16 -98 44 -124 81 l-23 31 36 15 c19 8 52 15 73 15
l38 0 -55 31 c-67 37 -106 73 -131 121 -10 21 -19 40 -19 43 0 9 93 6 129 -5
l33 -9 -44 47 c-60 64 -107 135 -130 195 -22 57 -17 69 15 41 104 -92 130
-114 138 -114 5 0 -13 30 -41 66 -79 103 -119 198 -105 251 5 23 11 19 90 -63
47 -48 87 -85 90 -82 3 3 -11 39 -30 80 -38 80 -73 222 -62 252 5 13 15 2 42
-49 36 -71 113 -182 139 -204 14 -12 16 -11 16 6 0 36 12 33 43 -10 16 -23 80
-94 142 -157 66 -67 116 -127 120 -143 4 -15 5 -56 1 -90 -18 -186 -18 -204
-2 -260 19 -67 68 -127 101 -127 30 0 55 25 55 55 0 15 9 29 22 36 32 17 109
15 145 -4 43 -23 101 -21 174 3 43 15 68 18 92 12 31 -8 32 -10 38 -73 7 -84
35 -131 101 -169 48 -27 49 -29 30 -41 -20 -13 -20 -13 4 -32 30 -23 33 -62 4
-54 -25 6 -24 4 5 -58 l23 -50 1 313 1 312 175 0 175 0 12 28 c7 15 12 65 12
112 1 76 -2 91 -28 137 -16 29 -37 60 -48 70 -15 13 -14 8 6 -28 13 -24 30
-73 36 -107 10 -55 9 -67 -5 -88 -21 -33 -69 -61 -118 -69 -44 -8 -57 2 -57
45 0 25 -1 25 -93 25 -79 1 -98 4 -137 25 -41 23 -45 29 -48 67 -2 28 4 56 18
83 12 23 20 43 18 44 -2 1 -24 10 -50 20 -55 20 -97 69 -81 94 19 32 61 54
114 61 l54 8 -60 29 c-48 22 -78 30 -150 34 -88 5 -90 6 -89 29 1 16 -10 34
-28 49 -49 42 -34 72 38 72 26 0 32 3 28 15 -4 10 0 15 16 15 30 0 58 -16 104
-59 27 -25 37 -30 31 -16 -4 11 -17 63 -29 115 -12 53 -25 101 -29 107 -4 7
-1 24 8 37 27 41 2 69 -87 96 -39 12 -42 18 -32 58 4 15 14 22 30 22 87 0 159
-96 230 -310 l29 -85 6 75 c3 41 9 83 14 93 8 18 30 23 40 7 3 -5 24 9 45 30
48 48 73 53 64 13 -4 -16 -11 -36 -15 -45 -7 -12 -4 -18 12 -23 21 -7 21 -7
-4 -33 -51 -55 -77 -104 -77 -146 l0 -41 18 35 c24 44 49 60 62 40 8 -13 14
-10 33 14 28 34 34 27 42 -57 7 -58 4 -63 -45 -97 -55 -37 -90 -72 -90 -91 0
-23 77 -48 176 -58 148 -14 296 19 327 72 6 12 19 42 27 66 19 57 54 82 138
98 l67 13 -77 -4 c-117 -6 -129 -15 -174 -124 -30 -74 -58 -86 -209 -90 -203
-6 -263 19 -193 83 19 18 41 36 49 41 8 5 27 28 42 52 l28 43 -21 26 c-64 81
31 147 253 174 157 19 348 -3 469 -54 75 -32 96 -79 61 -137 -15 -27 -15 -31
1 -74 25 -66 52 -96 87 -96 36 0 37 12 0 58 -39 50 -54 101 -46 157 8 47 19
54 56 34 16 -8 23 -7 33 6 19 27 51 4 78 -55 26 -57 42 -60 46 -7 5 54 -21 93
-84 129 -60 34 -73 50 -54 73 9 11 8 19 -4 37 -9 12 -16 35 -16 50 0 39 41 49
81 19 l29 -22 9 25 c6 13 14 27 19 30 16 10 59 -49 77 -104 22 -67 35 -72 35
-13 0 158 120 277 193 191z m-1928 -48 c-11 -33 18 -66 69 -79 24 -6 52 -19
61 -28 16 -16 16 -18 -3 -33 -20 -17 -20 -18 -4 -64 15 -41 15 -48 2 -56 -8
-5 -21 -8 -28 -5 -41 15 -62 16 -62 4 0 -7 -7 -20 -16 -30 -15 -17 -19 -17
-45 -3 -53 27 -78 124 -44 170 8 10 15 33 15 51 0 19 10 44 26 62 30 36 38 39
29 11z m-296 -551 l45 -56 26 56 27 56 8 -35 c11 -52 46 -110 70 -115 11 -2
52 -9 92 -15 40 -7 77 -18 84 -26 6 -8 19 -14 29 -14 9 0 29 -9 44 -21 30 -23
35 -76 12 -118 l-13 -24 -12 21 c-13 25 -65 37 -101 24 -24 -10 -23 -11 25
-33 28 -12 74 -25 104 -27 l54 -5 -24 -18 c-30 -23 -81 -24 -143 -3 -62 21
-69 12 -12 -15 l45 -21 -17 -30 c-17 -31 -17 -31 11 -51 36 -27 34 -36 -7 -31
-20 2 -53 -4 -81 -17 -59 -26 -107 -26 -164 -1 -50 23 -81 24 -133 6 l-36 -13
-11 43 c-25 99 -9 202 38 251 l21 22 -24 73 c-13 40 -27 102 -30 136 -7 58 -6
63 11 60 10 -2 38 -28 62 -59z m2666 -6 c-3 -38 -17 -99 -30 -137 l-24 -69 29
-33 c49 -56 60 -128 36 -229 -10 -42 -15 -49 -31 -46 -48 10 -144 3 -187 -13
-46 -18 -50 -18 -95 -1 -27 9 -73 20 -103 24 l-55 6 32 24 c31 23 32 25 17 53
-9 17 -14 31 -12 33 2 1 22 12 46 24 23 12 42 23 42 26 0 2 -21 -3 -47 -11
-83 -26 -108 -27 -144 -8 l-34 17 60 13 c64 13 135 42 135 56 0 4 -22 8 -49 8
-39 0 -53 -5 -64 -20 -12 -17 -16 -18 -26 -6 -7 8 -15 30 -18 50 -5 30 -1 40
25 66 17 16 38 30 48 30 10 0 25 7 35 15 9 9 54 21 104 28 99 13 112 24 137
111 l15 49 16 -42 c9 -23 17 -49 17 -58 0 -10 22 8 56 45 31 34 60 62 66 62 7
0 8 -23 3 -67z m-2545 -573 c64 -25 106 -25 171 1 36 14 64 18 89 14 45 -8 56
-15 65 -44 7 -23 5 -24 -25 -18 -20 4 -52 0 -90 -13 -71 -24 -125 -25 -173 -5
-42 17 -119 20 -147 5 -16 -9 -22 -5 -35 19 -16 32 -13 37 33 51 42 13 58 11
112 -10z m2192 -1 c59 -23 104 -22 180 6 47 17 96 15 127 -4 18 -11 0 -68 -20
-62 -73 20 -91 20 -131 5 -67 -26 -140 -29 -179 -8 -20 10 -56 18 -86 18 -51
0 -61 8 -45 33 9 15 50 32 79 32 12 1 46 -8 75 -20z m-2862 -378 c-8 -17 -4
-22 33 -40 24 -12 51 -21 60 -21 9 0 17 -5 17 -10 0 -7 -13 -8 -35 -4 -44 8
-120 -19 -136 -47 -6 -12 -7 -48 -3 -93 l7 -74 -37 -36 -36 -37 0 58 0 58 -24
-51 c-21 -46 -30 -54 -72 -68 -27 -10 -70 -26 -96 -36 -64 -24 -63 -9 2 72 77
96 79 155 3 144 -28 -4 -33 -2 -33 15 0 36 42 65 110 77 43 8 79 22 107 42 40
29 119 69 136 70 4 0 3 -9 -3 -19z m3782 -22 c23 -12 54 -30 68 -40 14 -11 54
-24 89 -30 69 -13 111 -42 111 -78 0 -17 -5 -18 -40 -14 -31 4 -41 2 -46 -11
-12 -30 14 -89 61 -143 64 -73 61 -84 -17 -60 -133 40 -131 39 -161 97 l-28
55 7 -47 c3 -27 2 -54 -5 -65 -6 -10 -11 -12 -11 -5 0 7 -13 26 -30 44 -32 33
-34 47 -20 118 6 34 5 50 -6 67 -22 35 -71 55 -120 51 -24 -2 -44 -1 -44 3 0
3 25 16 55 28 49 21 54 25 49 47 -6 23 -4 24 20 15 14 -6 44 -20 68 -32z
m-823 -173 c17 -16 25 -17 45 -8 20 9 27 7 47 -15 13 -14 39 -32 58 -40 31
-13 35 -13 54 5 20 20 20 20 47 1 14 -11 36 -21 47 -22 16 -1 38 -31 89 -122
113 -202 152 -245 221 -245 56 0 72 42 22 59 -29 10 -58 36 -59 52 0 4 18 9
39 13 68 11 58 26 -16 26 -75 1 -92 9 -116 57 -24 46 -22 54 11 42 19 -7 38
-6 57 1 36 14 27 21 -37 31 -63 10 -78 24 -85 78 -6 46 -6 47 33 26 16 -8 40
-15 53 -15 20 0 22 4 17 25 -3 14 -9 36 -12 50 -5 22 -3 25 19 25 14 0 32 3
41 6 12 5 16 0 16 -20 0 -30 28 -89 72 -154 41 -60 74 -139 88 -209 20 -100
-16 -153 -117 -169 -52 -8 -111 9 -173 51 -29 19 -54 35 -56 35 -2 0 -4 -41
-4 -90 0 -101 12 -141 56 -182 32 -29 113 -72 157 -83 32 -9 33 -14 6 -48 -22
-29 -15 -56 19 -77 16 -9 16 -11 -2 -25 -11 -8 -26 -15 -34 -15 -16 0 -7 -36
15 -62 14 -16 13 -18 -11 -29 -19 -9 -25 -17 -20 -28 13 -28 15 -105 4 -121
-8 -11 -13 -12 -16 -3 -15 36 -52 78 -69 78 -17 0 -21 -9 -26 -68 -7 -81 -17
-95 -47 -67 -17 16 -22 32 -22 72 l0 51 -22 -20 c-13 -11 -42 -29 -65 -40
l-43 -20 0 29 c0 21 13 42 50 78 l49 50 -39 0 c-44 0 -52 16 -23 45 13 14 27
16 66 11 l50 -7 -5 51 c-6 64 -46 121 -119 172 -60 41 -161 78 -213 78 -39 0
-46 12 -46 76 0 31 11 66 36 117 63 124 58 244 -13 327 -19 22 -79 71 -132
109 -128 91 -128 92 -88 122 17 13 46 26 62 29 26 5 32 1 46 -25 10 -16 26
-39 38 -49z m-2079 42 c18 -14 30 -30 27 -35 -4 -6 -50 -41 -104 -79 -169
-120 -198 -161 -198 -284 1 -67 5 -84 40 -154 27 -55 39 -92 39 -125 1 -69 -7
-81 -53 -81 -45 0 -138 -32 -191 -65 -56 -35 -118 -109 -130 -155 -18 -67 -13
-76 45 -72 41 3 54 0 69 -17 25 -27 11 -44 -33 -39 l-37 3 47 -46 c44 -43 70
-92 56 -106 -3 -3 -33 8 -66 25 l-61 30 0 -38 c0 -45 -29 -86 -53 -77 -12 4
-17 18 -17 45 0 22 -3 54 -6 71 -10 46 -42 38 -73 -17 -17 -33 -26 -41 -35
-32 -14 14 -13 107 2 122 17 17 15 28 -6 28 -29 0 -33 10 -17 41 20 38 19 41
-15 61 l-30 17 31 31 32 31 -23 24 c-24 26 -21 55 5 55 28 0 129 58 163 93 19
19 38 52 43 73 10 46 11 141 0 167 -6 17 -8 17 -33 -3 -99 -77 -251 -81 -302
-8 -35 49 -6 185 60 293 58 93 94 166 94 189 0 19 4 21 36 18 l36 -4 -6 -49
c-6 -46 -5 -49 16 -49 13 0 36 7 52 15 36 19 36 19 36 -4 0 -60 -38 -100 -98
-102 -15 0 -36 -4 -47 -9 -18 -7 -18 -9 10 -20 21 -8 38 -9 58 -2 25 9 27 8
27 -13 0 -13 -12 -37 -26 -54 -25 -30 -29 -31 -100 -31 -80 0 -93 -15 -23 -26
21 -4 39 -12 39 -19 0 -15 -27 -38 -63 -53 -24 -10 -26 -15 -17 -32 8 -15 21
-20 50 -20 62 0 107 49 202 216 65 116 85 144 107 149 14 3 37 14 50 24 24 18
25 18 41 -1 21 -26 56 -17 109 28 23 20 42 30 46 24 15 -24 47 -9 73 35 24 39
31 44 58 42 17 -2 46 -15 64 -29z m73 -267 c39 -38 41 -117 8 -321 -11 -66 0
-96 44 -121 49 -28 72 -31 87 -14 39 48 50 55 82 55 19 0 41 -3 50 -6 19 -7
21 -24 4 -24 -14 0 -48 -30 -48 -42 0 -4 22 -8 49 -8 42 0 53 -4 71 -27 l22
-28 -28 -3 c-16 -1 -44 -5 -63 -8 l-34 -5 36 -25 c35 -24 57 -52 57 -73 0 -21
-67 -11 -104 14 -20 14 -38 25 -39 25 -1 0 -1 -21 1 -47 2 -31 -2 -55 -11 -67
-14 -19 -16 -18 -37 25 -45 88 -80 123 -80 80 0 -30 -19 -35 -50 -13 -24 18
-29 19 -42 6 -13 -14 -18 -11 -37 22 -16 26 -25 34 -33 26 -6 -6 -17 -8 -25
-5 -17 7 -43 55 -43 83 0 13 -7 20 -19 20 -30 0 -32 13 -10 58 18 35 19 46 9
76 -12 36 -71 96 -94 96 -21 0 -36 55 -36 129 0 74 8 95 30 81 32 -20 91 -11
130 20 67 53 114 60 153 21z m1918 -6 c70 -51 96 -60 139 -49 47 13 50 8 50
-76 0 -95 -7 -115 -46 -129 -73 -27 -114 -131 -70 -180 20 -22 14 -41 -15 -41
-13 0 -19 -7 -19 -22 0 -25 -35 -88 -48 -88 -4 0 -13 5 -19 11 -7 7 -17 0 -33
-26 -21 -33 -24 -35 -40 -20 -15 14 -18 13 -35 -5 -26 -29 -55 -26 -55 6 0 41
-21 24 -64 -50 -37 -63 -41 -67 -53 -50 -9 12 -13 37 -11 67 2 26 1 47 -1 47
-3 0 -15 -10 -27 -21 -14 -13 -41 -23 -70 -27 -45 -5 -46 -4 -39 19 7 24 43
63 67 72 26 9 -5 22 -53 22 -27 0 -49 4 -49 8 0 4 11 19 26 33 21 22 32 25 70
22 53 -4 59 13 13 41 -30 18 -30 20 -11 30 46 25 96 11 118 -31 14 -27 19 -29
47 -24 39 8 72 29 92 59 12 19 13 34 4 87 -19 118 -27 211 -22 251 11 82 86
114 154 64z m-1857 -827 c16 -27 -18 -56 -96 -79 -38 -12 -78 -29 -91 -39
l-22 -18 28 -57 c15 -31 25 -61 22 -66 -18 -29 -182 -84 -217 -73 -14 4 -41
49 -86 145 -1 3 24 9 56 11 74 7 106 24 196 102 40 35 85 71 102 80 36 20 93
17 108 -6z m1777 -3 c16 -9 59 -43 96 -76 88 -79 133 -102 205 -103 32 -1 58
-2 58 -3 0 -1 -17 -34 -37 -74 l-38 -71 -56 4 c-37 3 -79 15 -123 37 l-66 32
30 59 c30 59 30 60 11 79 -10 10 -45 27 -77 36 -95 27 -135 61 -107 88 12 12
73 7 104 -8z m372 -39 c68 -45 34 -116 -55 -116 -27 0 -30 2 -24 25 5 20 1 27
-23 39 -16 9 -31 23 -35 32 -19 50 70 64 137 20z m-2496 8 c8 -21 -7 -46 -36
-59 -18 -8 -21 -16 -17 -37 5 -26 3 -28 -27 -28 -54 0 -82 21 -82 60 0 28 6
39 34 57 42 28 118 32 128 7z m376 -60 c2 -28 0 -29 -63 -40 -36 -7 -85 -12
-110 -13 -38 -1 -42 1 -30 13 8 7 45 23 81 35 36 12 75 28 85 36 23 17 34 8
37 -31z m1737 -9 c57 -18 80 -31 80 -46 0 -12 -34 -11 -123 2 -96 14 -99 16
-85 61 l11 36 31 -18 c17 -10 56 -26 86 -35z m-465 21 c55 -8 178 -31 274 -51
96 -19 189 -35 207 -35 18 0 35 -4 39 -10 8 -13 -62 -150 -78 -150 -6 0 -79
13 -162 29 -332 65 -654 90 -923 72 -211 -14 -355 -32 -540 -68 -219 -41 -191
-46 -234 40 -20 41 -34 78 -31 81 4 3 21 6 39 6 17 0 122 18 233 40 317 64
382 69 751 66 231 -3 354 -8 425 -20z m-1608 -41 c-2 -5 -16 -14 -31 -20 -21
-7 -29 -6 -36 5 -14 21 -13 23 18 41 24 15 28 15 40 1 7 -9 11 -21 9 -27z
m2331 26 c12 -11 22 -27 22 -36 0 -14 -6 -16 -27 -10 -37 9 -43 16 -37 43 8
27 12 27 42 3z"/>
<path d="M2127 4223 c-9 -9 -9 -43 1 -43 18 1 34 19 29 34 -7 17 -19 21 -30 9z
m23 -13 c0 -5 -2 -10 -4 -10 -3 0 -8 5 -11 10 -3 6 -1 10 4 10 6 0 11 -4 11
-10z"/>
<path d="M2217 4125 c7 -63 18 -85 44 -85 22 0 50 52 48 92 -1 21 -1 21 -10
-4 -11 -28 -45 -46 -59 -31 -5 4 -13 24 -19 43 -9 32 -10 31 -4 -15z"/>
<path d="M2578 3833 c-26 -14 -68 -28 -93 -31 -32 -3 -49 -11 -56 -25 -16 -28
-60 -160 -55 -164 2 -2 32 3 67 12 35 8 94 15 130 15 58 0 67 3 78 23 10 18 8
34 -9 90 -12 37 -18 72 -15 77 12 20 71 11 94 -14 19 -21 21 -27 11 -47 -8
-14 -10 -41 -6 -75 4 -31 2 -55 -4 -59 -19 -11 -10 -23 24 -35 19 -6 55 -27
80 -46 l45 -34 26 22 c28 24 33 68 12 105 -7 12 -38 40 -69 63 -33 23 -69 60
-84 86 -14 24 -34 49 -44 54 -31 16 -82 10 -132 -17z"/>
<path d="M2030 3769 c0 -5 5 -7 10 -4 6 3 10 8 10 11 0 2 -4 4 -10 4 -5 0 -10
-5 -10 -11z"/>
<path d="M906 2868 c-3 -18 -18 -44 -32 -59 -24 -25 -24 -28 -12 -73 7 -25 17
-45 23 -42 5 2 18 -1 28 -6 23 -12 22 -55 -2 -63 -17 -5 -17 -9 -5 -62 7 -31
16 -92 20 -136 l7 -80 -32 5 c-35 5 -57 -12 -47 -37 4 -12 14 -14 42 -9 l36 7
-7 -49 c-4 -27 -9 -56 -11 -65 -2 -9 3 -22 12 -30 24 -20 49 1 50 42 1 93 2
96 32 91 17 -2 33 2 41 12 19 22 3 39 -30 32 l-29 -5 0 134 c0 154 -13 265
-42 350 -25 76 -34 85 -42 43z"/>
<path d="M4182 2849 c-37 -99 -46 -169 -47 -342 l0 -167 -29 6 c-18 4 -31 2
-36 -7 -14 -22 1 -39 35 -39 31 0 34 -3 40 -40 4 -21 4 -47 1 -57 -8 -26 8
-45 35 -41 26 3 27 9 15 97 l-7 54 30 -6 c36 -8 61 14 41 38 -8 9 -22 12 -42
8 l-31 -6 7 74 c4 41 13 102 20 136 12 58 12 62 -5 66 -12 3 -19 14 -19 31 0
25 25 47 46 39 14 -5 41 86 28 95 -18 14 -37 43 -49 78 l-12 37 -21 -54z"/>
<path d="M2695 2636 c-53 -13 -129 -49 -140 -66 -4 -7 52 -10 164 -10 149 0
170 2 165 15 -7 18 -78 60 -114 68 -14 3 -47 -1 -75 -7z"/>
<path d="M1940 2240 c0 -190 3 -280 11 -280 5 0 31 10 57 22 74 34 155 35 233
4 82 -32 128 -33 204 -1 79 33 148 33 225 0 74 -31 137 -32 193 -4 25 13 68
24 107 27 54 4 75 0 127 -22 34 -14 65 -26 68 -26 3 0 5 126 5 280 l0 280
-615 0 -615 0 0 -280z m195 168 c41 -25 45 -23 45 20 0 21 3 41 6 44 3 3 27
-16 54 -43 52 -52 70 -60 70 -31 0 11 8 27 19 36 18 16 19 16 25 -10 4 -15 25
-52 47 -82 44 -62 48 -90 19 -117 -22 -20 -26 -35 -9 -35 6 0 20 -11 31 -25
11 -14 30 -25 44 -25 21 0 24 -5 24 -35 0 -46 -21 -56 -128 -63 l-85 -5 6 24
c6 23 4 24 -42 21 -27 -2 -59 1 -70 8 -19 10 -20 13 -6 26 28 29 18 39 -39 39
-57 0 -94 19 -123 61 -13 20 -12 21 44 17 l58 -5 -40 21 c-43 23 -80 69 -91
116 -7 29 -6 29 12 13 23 -20 103 -57 124 -58 8 0 1 9 -16 19 -49 30 -74 69
-74 114 l0 41 33 -34 c17 -18 46 -41 62 -52z m934 0 c-7 -17 -30 -43 -52 -59
-22 -16 -38 -29 -35 -29 17 0 94 33 118 50 l29 20 -9 -30 c-13 -45 -47 -88
-88 -111 l-37 -20 53 5 c28 3 52 1 52 -3 0 -5 -16 -23 -35 -39 -37 -33 -89
-48 -124 -37 -16 5 -21 2 -21 -12 0 -11 5 -24 12 -31 19 -19 0 -27 -67 -27
-57 0 -62 -2 -54 -18 14 -24 -8 -31 -84 -24 -95 8 -117 19 -117 62 0 31 3 35
25 35 15 0 31 9 41 25 9 14 23 25 30 25 20 0 17 14 -6 35 -29 26 -25 53 20
119 22 33 43 70 46 83 8 32 27 24 39 -15 5 -18 13 -32 18 -32 4 0 30 22 57 49
27 27 51 46 54 43 3 -3 6 -23 6 -44 l0 -38 38 19 c20 10 51 33 67 51 l30 32 3
-27 c2 -15 -2 -41 -9 -57z m-495 40 c4 -13 10 -74 13 -136 l6 -112 32 6 c20 3
35 1 40 -6 11 -17 -15 -40 -46 -40 -28 0 -29 -2 -29 -47 0 -56 -10 -76 -36
-71 -16 3 -20 14 -22 61 -3 55 -4 57 -31 57 -33 0 -54 20 -42 39 6 9 18 11 40
6 l31 -7 0 86 c0 88 16 186 30 186 4 0 11 -10 14 -22z"/>
<path d="M2030 1925 c-30 -13 -63 -24 -72 -25 -14 0 -18 -8 -18 -35 0 -41 6
-42 63 -14 25 13 68 24 107 27 54 4 75 0 127 -22 78 -33 127 -33 203 -1 39 17
78 25 115 25 37 0 76 -8 115 -25 76 -32 125 -32 203 1 52 22 73 26 127 22 39
-3 82 -14 108 -27 23 -12 47 -19 52 -16 17 10 12 65 -5 65 -9 0 -42 11 -75 25
-76 32 -115 31 -193 -1 -42 -18 -80 -27 -117 -27 -37 0 -75 9 -117 27 -78 32
-117 33 -193 1 -41 -17 -78 -25 -120 -25 -42 0 -79 8 -120 25 -74 31 -119 31
-190 0z"/>
<path d="M2040 1795 c-41 -18 -54 -28 -52 -42 1 -10 4 -49 5 -88 2 -51 12 -91
36 -150 90 -221 257 -407 463 -515 l73 -39 75 40 c106 55 228 155 305 252 110
137 201 341 188 421 -3 19 -1 48 5 65 11 30 10 30 -45 56 -70 32 -118 32 -193
0 -79 -33 -154 -33 -235 0 -76 31 -120 31 -195 0 -39 -17 -78 -25 -115 -25
-37 0 -76 8 -115 25 -74 31 -129 31 -200 0z m337 -71 c3 -9 1 -25 -6 -36 -10
-17 -7 -25 23 -59 20 -21 36 -37 36 -34 0 14 4 21 22 34 11 7 17 19 14 26 -2
7 8 19 22 26 15 8 32 21 39 30 6 9 28 16 48 17 20 1 40 4 45 7 6 4 10 0 10 -8
0 -8 9 -24 20 -37 24 -28 25 -43 5 -60 -8 -7 -15 -27 -15 -46 0 -18 -5 -36
-10 -39 -6 -4 -10 -12 -9 -18 1 -7 -1 -20 -6 -30 -4 -11 -3 -23 3 -29 8 -8 8
-15 1 -24 -7 -9 -1 -23 25 -52 20 -22 43 -56 51 -76 12 -29 21 -37 38 -34 16
2 23 11 25 32 4 35 -14 58 -28 36 -7 -11 -12 -12 -20 -4 -8 8 -6 16 7 29 17
17 16 19 -5 33 -22 14 -31 62 -12 62 5 0 7 -6 4 -14 -3 -8 3 -19 15 -25 18
-10 20 -8 19 28 0 21 9 64 21 95 11 31 21 59 21 61 0 11 -29 4 -32 -7 -2 -6
-10 -8 -17 -4 -7 5 -10 14 -7 22 3 8 -1 17 -9 20 -16 7 -20 39 -6 48 5 3 12
-4 16 -17 7 -21 8 -21 12 6 6 36 49 56 71 33 14 -13 13 -14 -6 -9 -26 6 -29
-12 -6 -38 22 -24 21 -75 -3 -107 -19 -26 -19 -28 -1 -45 10 -10 15 -23 12
-29 -6 -9 -9 -9 -12 0 -2 7 -8 12 -14 12 -10 0 -7 -65 8 -177 5 -37 3 -43 -20
-59 -22 -14 -31 -15 -52 -5 -24 11 -25 10 -22 -20 2 -19 11 -36 23 -43 11 -6
22 -12 24 -14 3 -1 -4 -9 -15 -17 -15 -12 -16 -16 -5 -24 15 -10 -3 -26 -19
-16 -5 3 -10 -1 -10 -10 0 -8 -7 -18 -15 -21 -8 -4 -15 -15 -15 -25 0 -10 -4
-19 -10 -19 -5 0 -10 5 -10 10 0 20 -27 9 -38 -15 -6 -14 -17 -25 -23 -25 -7
0 -9 9 -5 25 7 27 -3 31 -35 15 -15 -9 -19 -7 -19 5 0 9 10 20 23 25 12 5 16
9 10 9 -7 1 -13 6 -13 12 0 7 11 9 28 6 34 -7 61 23 37 43 -9 7 -15 8 -20 0
-3 -5 -14 -10 -23 -10 -14 0 -14 2 -3 9 12 8 12 12 -2 26 -21 20 -22 29 -2 21
9 -3 15 0 15 8 0 8 3 21 6 30 5 12 0 16 -18 16 -34 0 -59 -29 -51 -60 6 -22 5
-24 -10 -11 -14 11 -17 11 -17 0 0 -8 -11 -1 -24 16 -21 26 -26 28 -48 18 -23
-10 -24 -9 -20 18 4 25 2 28 -14 23 -11 -4 -25 -11 -31 -17 -9 -6 -13 -6 -13
1 0 6 9 17 20 25 22 15 17 27 -12 27 -11 0 -16 4 -12 11 4 6 19 9 36 5 18 -3
27 -2 23 4 -3 6 -1 10 4 10 6 0 11 -9 11 -19 0 -23 30 -37 41 -19 5 7 1 20 -8
31 -15 15 -15 17 -1 12 12 -5 14 -1 11 19 -4 19 -1 26 10 26 8 0 14 -8 13 -17
0 -11 5 -17 14 -14 21 5 79 3 104 -4 19 -6 19 -4 -4 14 -14 11 -50 25 -80 31
-30 7 -73 16 -95 20 -24 6 -44 5 -49 0 -14 -14 -26 -12 -26 4 0 21 -27 27 -44
11 -8 -8 -17 -15 -20 -15 -11 0 -6 19 10 34 17 18 11 36 -14 36 -13 0 -13 3
-4 12 10 10 17 10 33 0 19 -12 20 -11 14 7 -8 27 11 28 25 2 12 -24 48 -37 63
-22 8 8 5 17 -10 33 -12 13 -23 34 -25 48 -2 17 -10 26 -26 28 -18 3 -21 6
-12 17 16 19 3 37 -21 30 -29 -10 -23 14 7 25 25 10 25 11 10 35 -9 13 -16 27
-16 30 0 10 19 5 34 -11 15 -14 16 -14 16 5 0 25 18 28 27 5z"/>
<path d="M2501 1639 c-1 -9 -8 -22 -16 -29 -8 -7 -14 -24 -14 -39 l2 -26 4 25
c3 14 12 33 20 42 8 9 13 23 10 30 -4 9 -6 8 -6 -3z"/>
<path d="M2533 1609 c-18 -5 -33 -13 -33 -17 0 -11 29 -49 30 -38 0 5 7 3 15
-4 8 -7 15 -11 15 -9 1 2 3 21 6 42 3 20 4 37 2 36 -2 0 -18 -5 -35 -10z"/>
<path d="M1430 2951 c0 -3 12 -14 26 -25 20 -14 28 -16 34 -6 5 8 9 5 13 -9 6
-24 37 -29 37 -6 0 8 7 15 16 15 10 0 14 -6 10 -15 -8 -22 12 -18 24 5 9 16 7
20 -12 25 -45 10 -148 22 -148 16z"/>
<path d="M1442 2739 c6 -17 66 -59 84 -59 22 0 16 28 -8 44 -36 23 -82 32 -76
15z"/>
<path d="M3655 2954 c-118 -24 -126 -26 -123 -42 2 -8 9 -17 16 -20 7 -2 11 2
10 8 -2 7 3 15 10 17 6 3 12 -2 12 -11 0 -23 31 -20 37 4 4 15 9 18 18 10 8
-7 19 -3 35 15 23 25 23 26 -15 19z"/>
<path d="M3613 2730 c-33 -20 -45 -50 -19 -50 17 0 78 42 84 58 6 18 -29 14
-65 -8z"/>
<path d="M2490 785 c0 -11 24 -55 30 -55 11 0 34 49 27 57 -4 3 -14 -2 -22
-13 -13 -17 -14 -17 -15 -1 0 14 -20 27 -20 12z"/>
<path d="M2570 776 c0 -8 -5 -16 -12 -18 -7 -3 -8 -10 -3 -17 6 -10 11 -8 21
10 16 29 17 39 4 39 -5 0 -10 -6 -10 -14z"/>
<path d="M2612 765 c-16 -34 -16 -32 18 -31 16 1 30 2 30 3 0 1 -4 13 -10 27
-12 33 -24 33 -38 1z"/>
<path d="M2293 773 c-7 -2 -13 -18 -13 -34 0 -18 4 -28 10 -24 6 4 8 11 5 16
-4 5 2 9 12 9 15 0 16 2 3 10 -13 9 -13 11 0 20 16 10 4 12 -17 3z"/>
<path d="M2344 766 c-10 -26 4 -48 28 -44 17 2 23 10 23 28 0 18 -6 26 -23 28
-13 2 -25 -3 -28 -12z m46 -16 c0 -5 -6 -10 -14 -10 -8 0 -18 5 -21 10 -3 6 3
10 14 10 12 0 21 -4 21 -10z"/>
<path d="M2420 750 c0 -31 20 -43 20 -12 1 15 2 15 15 -2 19 -25 25 -19 18 17
-4 20 -11 27 -29 27 -20 0 -24 -5 -24 -30z"/>
<path d="M2680 756 c0 -14 5 -28 10 -31 6 -4 10 5 10 19 0 14 5 26 10 26 6 0
10 -6 9 -12 -3 -24 1 -38 10 -38 5 0 8 12 7 28 -2 21 -9 28 -30 30 -22 3 -26
-1 -26 -22z"/>
<path d="M2760 740 c0 -33 15 -38 45 -16 25 18 13 46 -20 46 -21 0 -25 -5 -25
-30z m40 5 c0 -8 -4 -15 -10 -15 -5 0 -10 7 -10 15 0 8 5 15 10 15 6 0 10 -7
10 -15z"/>
<path d="M2871 763 c11 -3 15 -12 11 -28 -2 -15 0 -25 7 -25 6 0 11 11 11 24
0 15 7 26 18 29 9 3 -1 5 -23 5 -22 0 -33 -2 -24 -5z"/>
<path d="M2094 745 c-10 -25 4 -45 32 -45 26 0 30 20 4 28 -7 3 -10 0 -6 -7 4
-6 1 -11 -8 -11 -24 0 -19 29 7 40 l22 9 -23 0 c-12 1 -25 -6 -28 -14z"/>
<path d="M2167 747 c-3 -8 0 -23 7 -32 10 -15 16 -16 35 -6 12 7 21 20 19 29
-4 22 -53 29 -61 9z m43 -12 c0 -8 -7 -15 -15 -15 -16 0 -20 12 -8 23 11 12
23 8 23 -8z"/>
<path d="M2936 743 c-7 -16 16 -43 35 -43 14 0 31 30 25 45 -8 21 -52 19 -60
-2z m44 -8 c0 -8 -7 -15 -15 -15 -16 0 -20 12 -8 23 11 12 23 8 23 -8z"/>
<path d="M3016 734 c-4 -9 -1 -23 5 -30 15 -19 49 -18 49 1 0 8 -5 15 -11 15
-5 0 -7 -4 -4 -10 3 -6 -1 -7 -10 -4 -22 9 -12 29 14 28 11 0 21 3 21 8 0 16
-58 8 -64 -8z"/>
<path d="M3095 720 c-8 -25 1 -40 23 -39 11 0 12 3 5 6 -18 7 -16 21 5 26 14
4 14 5 -3 7 l-20 1 20 9 c19 8 19 9 -2 9 -13 1 -24 -7 -28 -19z"/>
<path d="M1910 717 c0 -7 6 -22 14 -33 12 -15 18 -17 33 -8 20 12 31 54 14 54
-6 0 -11 -9 -11 -20 0 -11 -7 -20 -15 -20 -8 0 -15 9 -15 20 0 11 -4 20 -10
20 -5 0 -10 -6 -10 -13z"/>
<path d="M2000 710 c0 -14 7 -20 21 -20 15 0 19 4 15 16 -3 9 -6 18 -6 20 0 2
-7 4 -15 4 -8 0 -15 -9 -15 -20z"/>
<path d="M3166 722 c7 -4 14 -18 17 -32 4 -25 4 -25 12 -2 4 12 11 22 16 22 5
0 9 5 9 10 0 6 -15 10 -32 10 -18 0 -28 -4 -22 -8z"/>
<path d="M1810 706 c-25 -7 -45 -17 -44 -24 1 -7 2 -19 3 -27 0 -8 9 -15 19
-15 13 0 14 2 3 9 -10 6 -10 10 -1 16 9 6 9 9 0 15 -7 5 -2 9 14 12 20 4 26 1
26 -13 0 -10 5 -21 10 -24 6 -3 10 4 10 17 0 13 5 29 12 36 14 14 8 14 -52 -2z"/>
<path d="M3234 695 c-7 -26 5 -50 13 -27 7 18 31 15 36 -5 3 -13 6 -11 12 10
8 31 -1 49 -14 28 -5 -7 -14 -10 -20 -7 -6 4 -9 12 -6 17 4 5 2 9 -4 9 -6 0
-13 -11 -17 -25z"/>
<path d="M3316 678 c-9 -35 -8 -38 17 -38 18 0 19 2 7 10 -12 8 -12 10 -1 10
10 0 11 3 2 14 -10 11 -8 15 6 19 15 4 14 5 -3 6 -15 1 -24 -7 -28 -21z"/>
<path d="M3381 658 c0 -18 3 -27 6 -20 7 18 23 15 24 -5 0 -13 3 -11 10 6 13
32 5 51 -21 51 -16 0 -20 -6 -19 -32z"/>
<path d="M1688 655 c6 -32 17 -39 39 -26 16 9 16 10 1 11 -9 0 -20 9 -23 20
-9 29 -23 25 -17 -5z"/>
</g>
</svg>
